<svg width="150" height="60" viewBox="0 0 150 60" fill="none" xmlns="http://www.w3.org/2000/svg">
<rect width="150" height="60" fill="#5551FF"/>
<path d="M129 48C132.215 48 133.873 49.9251 134.986 51.1621C136.123 52.4251 136.715 53 138 53C139.356 53 140.168 52.3327 141.38 51.0986C142.154 50.3106 143.42 50.2995 144.208 51.0732C144.996 51.8471 145.008 53.1132 144.234 53.9014C142.992 55.1673 141.144 57 138 57C134.786 57 133.127 55.0749 132.014 53.8379C130.877 52.5749 130.285 52 129 52C127.715 52 127.123 52.5749 125.986 53.8379C124.873 55.0749 123.215 57 120 57C116.822 57 115.069 55.1229 113.89 53.8701C112.625 52.5257 112.062 52 111 52C110.157 52 109.635 52.4753 108.234 53.9014C106.992 55.1673 105.144 57 102 57C98.7856 57 97.1271 55.0749 96.0138 53.8379C94.8771 52.5749 94.2855 52 93.0001 52C91.7147 52 91.1231 52.5749 89.9864 53.8379C88.8731 55.0749 87.2146 57 84.0001 57C80.822 57 79.0685 55.1229 77.8897 53.8701C76.6247 52.5257 76.0616 52 75.0001 52C74.1568 52 73.6346 52.4753 72.2345 53.9014C70.9915 55.1673 69.144 57 66.0001 57C62.7856 57 61.1271 55.0749 60.0138 53.8379C58.8771 52.5749 58.2855 52 57.0001 52C55.7147 52 55.1231 52.5749 53.9864 53.8379C52.8731 55.0749 51.2146 57 48.0001 57C44.822 57 43.0685 55.1229 41.8897 53.8701C40.6247 52.5257 40.0616 52 39.0001 52L38.8458 52.0059C38.0883 52.0632 37.5473 52.5642 36.2345 53.9014C34.9915 55.1673 33.144 57 30.0001 57C26.7856 57 25.1271 55.0749 24.0138 53.8379C22.8771 52.5749 22.2855 52 21.0001 52C19.7147 52 19.1231 52.5749 17.9864 53.8379C16.8731 55.0749 15.2146 57 12.0001 57C8.52963 57 6.71111 54.7327 5.54989 53.5098C4.7893 52.7088 4.82215 51.4422 5.62313 50.6816C6.42408 49.9214 7.68975 49.9541 8.45028 50.7549C9.87133 52.2514 10.528 53 12.0001 53C13.2855 53 13.8771 52.4251 15.0138 51.1621C16.1271 49.9251 17.7856 48 21.0001 48C24.2146 48 25.8731 49.9251 26.9864 51.1621C28.1231 52.4251 28.7147 53 30.0001 53C31.3562 53 32.1683 52.3327 33.38 51.0986C34.4343 50.0248 36.1617 48 39.0001 48C42.0293 48 43.7158 49.9746 44.8028 51.1299C45.9763 52.3771 46.6782 53 48.0001 53C49.2855 53 49.8771 52.4251 51.0138 51.1621C52.1271 49.9251 53.7856 48 57.0001 48C60.2146 48 61.8731 49.9251 62.9864 51.1621C64.1231 52.4251 64.7147 53 66.0001 53C67.3562 53 68.1683 52.3327 69.38 51.0986C70.4343 50.0248 72.1617 48 75.0001 48C78.0293 48 79.7158 49.9746 80.8028 51.1299C81.9763 52.3771 82.6782 53 84.0001 53C85.2855 53 85.8771 52.4251 87.0138 51.1621C88.1271 49.9251 89.7856 48 93.0001 48C96.2146 48 97.8731 49.9251 98.9864 51.1621C100.123 52.4251 100.715 53 102 53C103.356 53 104.168 52.3327 105.38 51.0986C106.434 50.0248 108.162 48 111 48C114.029 48 115.716 49.9746 116.803 51.1299C117.976 52.3771 118.678 53 120 53C121.285 53 121.877 52.4251 123.014 51.1621C124.127 49.9251 125.786 48 129 48Z" fill="#FFD900"/>
<path d="M15 5C16.1046 5 17 5.89543 17 7V20C17 21.1046 17.8954 22 19 22C20.1046 22 21 21.1046 21 20V7C21 5.89543 21.8954 5 23 5H31C32.1046 5 33 5.89543 33 7V42C33 44.9415 31.1849 47.4572 28.6143 48.4932C27.3161 47.1084 24.9484 45 21 45C16.5266 45 14.0814 47.7056 12.9229 49H10.918C10.884 48.9639 10.848 48.9265 10.8105 48.8867C9.68014 47.4805 7.68584 46.014 5 45.3564V39C5 37.8954 5.89543 37 7 37H19C20.1046 37 21 36.1046 21 35C21 33.8954 20.1046 33 19 33H12C8.13401 33 5 29.866 5 26V7C5 5.89543 5.89543 5 7 5H15ZM58 5C61.866 5 65 8.13401 65 12V42C65 43.9414 64.2091 45.6978 62.9326 46.9658C61.5543 45.9335 59.627 45 57 45C52.5266 45 50.0814 47.7056 48.9229 49H46.9199C45.9173 47.9206 43.401 45 39 45C38.5556 45 38.1292 45.0347 37.7207 45.0957C37.2596 44.1623 37 43.1115 37 42V12C37 8.13401 40.134 5 44 5H58ZM79 5C80.1046 5 81 5.89543 81 7V36C81 37.1046 81.8954 38 83 38C84.1046 38 85 37.1046 85 36V7C85 5.89543 85.8954 5 87 5H95C96.1046 5 97 5.89543 97 7V36C97 37.1046 97.8954 38 99 38C100.105 38 101 37.1046 101 36V7C101 5.89543 101.895 5 103 5H111C112.105 5 113 5.89543 113 7V42C113 43.108 112.741 44.1548 112.282 45.0859C111.874 45.0307 111.447 45 111 45C106.665 45 104.034 48.1874 103.239 48.9971L103.236 49H101.077C99.9186 47.7056 97.4734 45 93 45C88.5266 45 86.0814 47.7056 84.9229 49H82.9199C81.9173 47.9206 79.401 45 75 45C73.1825 45 71.6648 45.561 70.4561 46.2715C69.5439 45.0894 69 43.6086 69 42V7C69 5.89543 69.8954 5 71 5H79ZM127 5C128.105 5 129 5.89543 129 7V35C129 36.1046 129.895 37 131 37H143C144.105 37 145 37.8954 145 39V45.3633C143.774 45.7224 142.774 46.2857 142.051 46.7627C141.068 47.4107 139.776 48.523 139.725 48.5635L139.468 48.7646L139.239 48.9971L139.236 49H137.077C135.919 47.7056 133.473 45 129 45C124.527 45 122.081 47.7056 120.923 49H118.92C118.524 48.5739 117.89 47.8633 117 47.1562V7C117 5.89543 117.895 5 119 5H127ZM51 16C49.8954 16 49 16.8954 49 18V36C49 37.1046 49.8954 38 51 38C52.1046 38 53 37.1046 53 36V18C53 16.8954 52.1046 16 51 16Z" fill="#51FFD1"/>
</svg>
